<mxfile host="app.diagrams.net" modified="2023-08-24T00:04:12.323Z" agent="Mozilla/5.0 (X11; Linux x86_64) AppleWebKit/537.36 (KHTML, like Gecko) Chrome/116.0.0.0 Safari/537.36" etag="DVbgqHG23QYkm3WqC6ZT" version="21.6.9" type="github">
  <diagram name="Page-1" id="9W1mYS4-K-Q7BYJbPKZ9">
    <mxGraphModel dx="365" dy="253" grid="0" gridSize="10" guides="1" tooltips="1" connect="1" arrows="1" fold="1" page="0" pageScale="1" pageWidth="1654" pageHeight="2336" math="0" shadow="0">
      <root>
        <mxCell id="0" />
        <mxCell id="1" parent="0" />
        <mxCell id="_8Sz9cDZqaUybAavY0PA-1" value="&lt;p style=&quot;margin:0px;margin-top:4px;text-align:center;&quot;&gt;&lt;b&gt;Pessoa&lt;/b&gt;&lt;/p&gt;&lt;hr size=&quot;1&quot;&gt;&lt;p style=&quot;margin:0px;margin-left:4px;&quot;&gt;- codigo: int&lt;/p&gt;&lt;p style=&quot;margin:0px;margin-left:4px;&quot;&gt;- nome: string&lt;/p&gt;&lt;p style=&quot;margin:0px;margin-left:4px;&quot;&gt;- endereco: string&lt;/p&gt;&lt;p style=&quot;margin:0px;margin-left:4px;&quot;&gt;- telefone: string&lt;/p&gt;&lt;p style=&quot;margin:0px;margin-left:4px;&quot;&gt;- dataNascimento: data&lt;/p&gt;&lt;p style=&quot;margin:0px;margin-left:4px;&quot;&gt;- rg: string&lt;/p&gt;&lt;p style=&quot;margin:0px;margin-left:4px;&quot;&gt;- cpf: string&lt;/p&gt;&lt;p style=&quot;margin:0px;margin-left:4px;&quot;&gt;- dataInsercao: data&lt;/p&gt;&lt;hr size=&quot;1&quot;&gt;&lt;p style=&quot;margin:0px;margin-left:4px;&quot;&gt;+ Pessoa()&lt;/p&gt;&lt;p style=&quot;margin:0px;margin-left:4px;&quot;&gt;+ Pessoa(int, string, string, string, data, string, string, data)&lt;/p&gt;" style="verticalAlign=top;align=left;overflow=fill;fontSize=12;fontFamily=Helvetica;html=1;whiteSpace=wrap;" vertex="1" parent="1">
          <mxGeometry x="69" y="155" width="223" height="216" as="geometry" />
        </mxCell>
      </root>
    </mxGraphModel>
  </diagram>
</mxfile>
